<svg width="563" height="101" viewBox="0 0 563 101" fill="none" xmlns="http://www.w3.org/2000/svg">
<path d="M10.8594 20.2344V78.6719H47.4219V85H4.33594V20.2344H10.8594ZM92.9297 61.0938V20.1953H99.4922V59.8047C99.4922 61.263 99.4141 62.7214 99.2578 64.1797C99.1016 65.612 98.7891 67.2396 98.3203 69.0625C97.8776 70.8594 97.2786 72.5391 96.5234 74.1016C95.7682 75.638 94.7266 77.1745 93.3984 78.7109C92.0964 80.2474 90.5729 81.5625 88.8281 82.6562C87.1094 83.75 84.974 84.6224 82.4219 85.2734C79.8698 85.9505 77.0573 86.2891 73.9844 86.2891C70.9115 86.2891 68.099 85.9505 65.5469 85.2734C62.9948 84.6224 60.8594 83.75 59.1406 82.6562C57.4219 81.5625 55.8984 80.2474 54.5703 78.7109C53.2682 77.1745 52.2396 75.638 51.4844 74.1016C50.7292 72.5391 50.1172 70.8594 49.6484 69.0625C49.2057 67.2396 48.9062 65.612 48.75 64.1797C48.5938 62.7214 48.5156 61.263 48.5156 59.8047V20.1953H55.0781V61.0938C55.0781 66.9271 56.6927 71.4974 59.9219 74.8047C63.151 78.0859 67.8385 79.7266 73.9844 79.7266C80.2083 79.7266 84.9219 78.0859 88.125 74.8047C91.3281 71.4974 92.9297 66.9271 92.9297 61.0938ZM136.484 85L114.062 27.7734V85H107.461V20.2344H117.969L139.453 75.7031L160.82 20.2344H171.406V85H164.805V27.7734L142.422 85H136.484ZM209.141 85L186.719 27.7734V85H180.117V20.2344H190.625L212.109 75.7031L233.477 20.2344H244.062V85H237.461V27.7734L215.078 85H209.141ZM259.297 26.5234V47.1094H290.391V53.3984L259.297 53.2812V78.7109H296.25V85H252.773V20.2344H296.25V26.5234H259.297ZM350.938 85L311.523 27.7734V85H304.961V20.2344H313.594L352.891 77.4219V20.2344H359.453V85H350.938ZM405.508 20.2344H413.047L391.445 58.8281V85H384.883V58.8281L363.281 20.2344H370.82L388.164 51.1328L405.508 20.2344Z" fill="black"/>
<rect width="563" height="3" fill="black"/>
</svg>
